C:\Users\r0593348\3dpredictsim\Results\Batchsim_tmt_linear_v2\Pog_s1_tmt_bCst_d00_k500_ig24_pas_GRF.mot
nRows=30
nColumns=19

name C:\Users\r0593348\3dpredictsim\Results\Batchsim_tmt_linear_v2\Pog_s1_tmt_bCst_d00_k500_ig24_pas_GRF.mot
datacolumns 19
datarows 30
range 0.5564913867 0.8792563910
endheader
time 	ground_force_vx	ground_force_vy	ground_force_vz	ground_force_px	ground_force_py	ground_force_pz	1_ground_force_vx	1_ground_force_vy	1_ground_force_vz	1_ground_force_px	1_ground_force_py	1_ground_force_pz	ground_torque_x	ground_torque_y	ground_torque_z	1_ground_torque_x	1_ground_torque_y	1_ground_torque_z
        0.5564913867	      109.2418552151	      440.3440018039	       -5.0331339353	        0.3420610336	        0.0000000000	        0.0439465883	      -50.8572404891	       37.5910975297	      -11.4168381249	        0.8641259704	        0.0000000000	       -0.0475861269	        0.0000000000	        0.0000000000	        0.0000000000	        0.0000000000	        0.0000000000	        0.0000000000	
        0.5676212145	       70.0611327552	      327.6835230838	        1.4946944723	        0.3601544102	        0.0000000000	        0.0403601544	     -102.1338120434	       92.4592577983	      -29.6862780160	        0.8736711797	        0.0000000000	       -0.0454645399	        0.0000000000	        0.0000000000	        0.0000000000	        0.0000000000	        0.0000000000	        0.0000000000	
        0.5787510422	       30.1350423867	      216.7296936810	       10.3832822320	        0.3902569125	        0.0000000000	        0.0334676066	     -124.0886547545	      210.8734136544	      -49.9972199820	        0.8797859363	        0.0000000000	       -0.0441942573	        0.0000000000	        0.0000000000	        0.0000000000	        0.0000000000	        0.0000000000	        0.0000000000	
        0.5898808699	        5.9419251835	      149.8610823251	       14.1033344970	        0.4180329479	        0.0000000000	        0.0247808618	      -83.0734964252	      416.8248436293	       -9.5843549760	        0.8849445893	        0.0000000000	       -0.0433879239	        0.0000000000	        0.0000000000	        0.0000000000	        0.0000000000	        0.0000000000	        0.0000000000	
        0.6010106977	        0.7038972692	      121.0439914687	       11.3431792030	        0.4173554919	        0.0000000000	        0.0249968947	      -94.4934128018	      691.2340730049	       10.9626284791	        0.8947192700	        0.0000000000	       -0.0455638608	        0.0000000000	        0.0000000000	        0.0000000000	        0.0000000000	        0.0000000000	        0.0000000000	
        0.6121405254	       -2.5347104162	       80.5822761422	        9.7620492886	        0.4178201090	        0.0000000000	        0.0250205622	     -137.4824037469	      924.6063705512	       20.4998697076	        0.9031747610	        0.0000000000	       -0.0478144066	        0.0000000000	        0.0000000000	        0.0000000000	        0.0000000000	        0.0000000000	        0.0000000000	
        0.6232703531	       -7.6783334532	       33.8402777881	        6.3324000575	        0.4175863571	        0.0000000000	        0.0251264249	     -153.2549440947	     1009.5553128073	       22.6554357070	        0.9086567985	        0.0000000000	       -0.0491470475	        0.0000000000	        0.0000000000	        0.0000000000	        0.0000000000	        0.0000000000	        0.0000000000	
        0.6344001809	        0.1227097451	       -0.1250485835	       -0.0102193383	        0.0000000000	        0.0000000000	        0.0000000000	     -145.7567616433	      986.3442395276	       23.1872340209	        0.9126887198	        0.0000000000	       -0.0499691659	        0.0000000000	        0.0000000000	        0.0000000000	        0.0000000000	        0.0000000000	        0.0000000000	
        0.6455300086	        0.0001101394	       -0.0000920705	        0.0000023836	        0.0000000000	        0.0000000000	        0.0000000000	     -127.5430928793	      918.8545868693	       22.1093552658	        0.9164725749	        0.0000000000	       -0.0505547415	        0.0000000000	        0.0000000000	        0.0000000000	        0.0000000000	        0.0000000000	        0.0000000000	
        0.6566598363	        0.0000636153	       -0.0000465034	        0.0000026291	        0.0000000000	        0.0000000000	        0.0000000000	     -110.7569272379	      851.7648175206	       20.2728188680	        0.9207331259	        0.0000000000	       -0.0511747928	        0.0000000000	        0.0000000000	        0.0000000000	        0.0000000000	        0.0000000000	        0.0000000000	
        0.6677896641	        0.0007782152	       -0.0005095792	        0.0000392886	        0.0000000000	        0.0000000000	        0.0000000000	     -100.7133106016	      806.1565293774	       19.3932278568	        0.9263381381	        0.0000000000	       -0.0515606478	        0.0000000000	        0.0000000000	        0.0000000000	        0.0000000000	        0.0000000000	        0.0000000000	
        0.6789194918	        0.0066115528	       -0.0039620514	        0.0003604542	        0.0000000000	        0.0000000000	        0.0000000000	      -90.8091617877	      765.2023900075	       18.3726123476	        0.9322382835	        0.0000000000	       -0.0516133534	        0.0000000000	        0.0000000000	        0.0000000000	        0.0000000000	        0.0000000000	        0.0000000000	
        0.6900493195	       -0.0504250254	        0.0281173737	       -0.0028613486	        0.0000000000	        0.0000000000	        0.0000000000	      -80.8620247299	      724.6431782031	       18.0580385849	        0.9378975300	        0.0000000000	       -0.0515737552	        0.0000000000	        0.0000000000	        0.0000000000	        0.0000000000	        0.0000000000	        0.0000000000	
        0.7011791473	       -0.0336375886	        0.0176571090	       -0.0019582461	        0.0000000000	        0.0000000000	        0.0000000000	      -72.2171035118	      690.1361610649	       17.5669144119	        0.9433434874	        0.0000000000	       -0.0513939524	        0.0000000000	        0.0000000000	        0.0000000000	        0.0000000000	        0.0000000000	        0.0000000000	
        0.7123089750	       -0.0228870103	        0.0114040484	       -0.0013547655	        0.0000000000	        0.0000000000	        0.0000000000	      -63.3444448207	      662.9521009173	       17.3705131581	        0.9485723617	        0.0000000000	       -0.0512008935	        0.0000000000	        0.0000000000	        0.0000000000	        0.0000000000	        0.0000000000	        0.0000000000	
        0.7234388027	       -0.0195661176	        0.0093159131	       -0.0011709750	        0.0000000000	        0.0000000000	        0.0000000000	      -56.3693751971	      642.1309270022	       17.8011664789	        0.9536256404	        0.0000000000	       -0.0509956711	        0.0000000000	        0.0000000000	        0.0000000000	        0.0000000000	        0.0000000000	        0.0000000000	
        0.7345686305	       -0.0216717010	        0.0099157869	       -0.0013128892	        0.0000000000	        0.0000000000	        0.0000000000	      -50.8603273957	      626.9144614875	       18.4307029874	        0.9584180902	        0.0000000000	       -0.0507672001	        0.0000000000	        0.0000000000	        0.0000000000	        0.0000000000	        0.0000000000	        0.0000000000	
        0.7456984582	       -0.0302299431	        0.0133592287	       -0.0018571782	        0.0000000000	        0.0000000000	        0.0000000000	      -46.1802017757	      615.8964297780	       19.0602571063	        0.9629368804	        0.0000000000	       -0.0505241825	        0.0000000000	        0.0000000000	        0.0000000000	        0.0000000000	        0.0000000000	        0.0000000000	
        0.7568282859	       -0.0500841761	        0.0214782904	       -0.0031322456	        0.0000000000	        0.0000000000	        0.0000000000	      -41.8874241881	      607.3328377058	       19.9625394183	        0.9671506346	        0.0000000000	       -0.0502599525	        0.0000000000	        0.0000000000	        0.0000000000	        0.0000000000	        0.0000000000	        0.0000000000	
        0.7679581137	       -0.0920400743	        0.0384677350	       -0.0058851854	        0.0000000000	        0.0000000000	        0.0000000000	      -37.6258320178	      600.0000934473	       20.8844893948	        0.9710831922	        0.0000000000	       -0.0499855868	        0.0000000000	        0.0000000000	        0.0000000000	        0.0000000000	        0.0000000000	        0.0000000000	
        0.7790879414	       -0.1755518863	        0.0717802821	       -0.0115144126	        0.0000000000	        0.0000000000	        0.0000000000	      -33.4420488698	      593.4556626141	       21.6962392392	        0.9747735483	        0.0000000000	       -0.0497108646	        0.0000000000	        0.0000000000	        0.0000000000	        0.0000000000	        0.0000000000	        0.0000000000	
        0.7902177691	       -0.3273570920	        0.1314139631	       -0.0219961134	        0.0000000000	        0.0000000000	        0.0000000000	      -29.3336283564	      587.4310407254	       21.9143342164	        0.9782401296	        0.0000000000	       -0.0494575523	        0.0000000000	        0.0000000000	        0.0000000000	        0.0000000000	        0.0000000000	        0.0000000000	
        0.8013475969	       -0.5687386237	        0.2248613897	       -0.0388259308	        0.0000000000	        0.0000000000	        0.0000000000	      -25.3708712855	      581.1016228104	       21.6076250075	        0.9814734963	        0.0000000000	       -0.0492220704	        0.0000000000	        0.0000000000	        0.0000000000	        0.0000000000	        0.0000000000	        0.0000000000	
        0.8124774246	       -0.8969091881	        0.3501000563	       -0.0614619909	        0.0000000000	        0.0000000000	        0.0000000000	      -21.3126166292	      574.2493449577	       20.9459842018	        0.9844912959	        0.0000000000	       -0.0490000990	        0.0000000000	        0.0000000000	        0.0000000000	        0.0000000000	        0.0000000000	        0.0000000000	
        0.8236072524	       -1.2837205550	        0.4955339962	       -0.0874029236	        0.0000000000	        0.0000000000	        0.0000000000	      -17.0707646504	      566.6899312400	       20.1980481659	        0.9873051655	        0.0000000000	       -0.0487846060	        0.0000000000	        0.0000000000	        0.0000000000	        0.0000000000	        0.0000000000	        0.0000000000	
        0.8347370801	       -1.6775540413	        0.6413381051	       -0.1123722389	        0.0000000000	        0.0000000000	        0.0000000000	      -12.7700313136	      558.7335256342	       19.2046836301	        0.9898881817	        0.0000000000	       -0.0485804873	        0.0000000000	        0.0000000000	        0.0000000000	        0.0000000000	        0.0000000000	        0.0000000000	
        0.8458669078	       -1.9959033252	        0.7569720429	       -0.1296430746	        0.0000000000	        0.0000000000	        0.0000000000	       -8.2855198290	      552.0384408898	       18.0112320212	        0.9921724128	        0.0000000000	       -0.0483837833	        0.0000000000	        0.0000000000	        0.0000000000	        0.0000000000	        0.0000000000	        0.0000000000	
        0.8569967356	       -2.1449707103	        0.8083338530	       -0.1329043298	        0.0000000000	        0.0000000000	        0.0000000000	       -3.3527670910	      547.8064024873	       16.8322308202	        0.9940339894	        0.0000000000	       -0.0481825961	        0.0000000000	        0.0000000000	        0.0000000000	        0.0000000000	        0.0000000000	        0.0000000000	
        0.8681265633	       -2.0496221674	        0.7685693072	       -0.1186077282	        0.0000000000	        0.0000000000	        0.0000000000	        2.2294578365	      546.0804593374	       15.3262524900	        0.9954949267	        0.0000000000	       -0.0479820980	        0.0000000000	        0.0000000000	        0.0000000000	        0.0000000000	        0.0000000000	        0.0000000000	
        0.8792563910	       -1.6931681961	        0.6324680270	       -0.0884967570	        0.0000000000	        0.0000000000	        0.0000000000	        8.5105440084	      545.7400511642	       13.5325109654	        0.9967759341	        0.0000000000	       -0.0477846686	        0.0000000000	        0.0000000000	        0.0000000000	        0.0000000000	        0.0000000000	        0.0000000000	
